<svg xmlns="http://www.w3.org/2000/svg" viewBox="0 0 160 48" role="img" aria-labelledby="title desc">
<title id="title">CMS Integration Badge</title>
<desc id="desc">Professional badge highlighting Centers for Medicare &amp; Medicaid Services connectivity for PayerReady</desc>
<defs>
    <linearGradient id="badgeCmsBase" x1="0%" y1="0%" x2="100%" y2="100%">
        <stop offset="0%" stop-color="#003A70"/>
        <stop offset="100%" stop-color="#1C83FF"/>
    </linearGradient>
    <linearGradient id="badgeCmsHighlight" x1="0%" y1="0%" x2="100%" y2="0%">
        <stop offset="0%" stop-color="rgba(255,255,255,0.4)"/>
        <stop offset="100%" stop-color="rgba(255,255,255,0)"/>
    </linearGradient>
</defs>
<rect x="1" y="1" width="158" height="46" rx="12" fill="#05203E" stroke="#1C83FF" stroke-width="2"/>
<rect x="4" y="4" width="152" height="40" rx="10" fill="url(#badgeCmsBase)"/>
<path d="M18 34c16-8.5 30-12.5 41-12.5S84 25.5 100 34H18Z" fill="url(#badgeCmsHighlight)" opacity="0.55"/>
<g transform="translate(26 10)">
    <rect x="0" y="0" width="24" height="24" rx="12" fill="rgba(255,255,255,0.18)"/>
    <path d="M12 4c4.418 0 8 3.582 8 8s-3.582 8-8 8-8-3.582-8-8 3.582-8 8-8Z" fill="rgba(255,255,255,0.35)"/>
    <path d="M9.5 8.5c0-1.933 1.567-3.5 3.5-3.5s3.5 1.567 3.5 3.5-1.567 3.5-3.5 3.5-3.5-1.567-3.5-3.5Zm-3 10.5c0-2.209 1.791-4 4-4h6a4 4 0 0 1 4 4v3H6.5v-3Z" fill="#FFFFFF"/>
</g>
<g fill="#F2F8FF" font-family="Inter, 'Segoe UI', sans-serif" text-anchor="middle">
    <text x="80" y="25" font-size="16" font-weight="600" textLength="96" lengthAdjust="spacingAndGlyphs">CMS</text>
    <text x="80" y="36" font-size="9" fill="rgba(242,248,255,0.75)" textLength="120" lengthAdjust="spacingAndGlyphs">MEDICARE &amp; MEDICAID SERVICES</text>
</g>
</svg>

