<svg xmlns="http://www.w3.org/2000/svg" viewBox="0 0 160 48" role="img" aria-labelledby="title desc">
<title id="title">Epic Integration Badge</title>
<desc id="desc">Professional badge conveying Epic EHR platform integration for PayerReady</desc>
<defs>
    <linearGradient id="badgeEpicBase" x1="0%" y1="0%" x2="100%" y2="100%">
        <stop offset="0%" stop-color="#7A0E38"/>
        <stop offset="100%" stop-color="#F54C8B"/>
    </linearGradient>
    <linearGradient id="badgeEpicGlow" x1="0%" y1="0%" x2="100%" y2="0%">
        <stop offset="0%" stop-color="rgba(255,255,255,0.45)"/>
        <stop offset="100%" stop-color="rgba(255,255,255,0.08)"/>
    </linearGradient>
</defs>
<rect x="1" y="1" width="158" height="46" rx="12" fill="#310816" stroke="#F54C8B" stroke-width="2"/>
<rect x="4" y="4" width="152" height="40" rx="10" fill="url(#badgeEpicBase)"/>
<path d="M18 34c17-9 32-13.5 44-13.5S90 25 108 34H18Z" fill="url(#badgeEpicGlow)" opacity="0.55"/>
<g transform="translate(26 11)">
    <rect x="0" y="0" width="26" height="26" rx="13" fill="rgba(255,255,255,0.18)"/>
    <path d="M13 5c4.418 0 8 3.582 8 8s-3.582 8-8 8-8-3.582-8-8 3.582-8 8-8Z" fill="rgba(255,255,255,0.32)"/>
    <path d="M10 9.5c0-1.933 1.567-3.5 3.5-3.5s3.5 1.567 3.5 3.5-1.567 3.5-3.5 3.5S10 11.433 10 9.5Zm-3.5 10.5c0-2.209 1.791-4 4-4h6c2.209 0 4 1.791 4 4V22H6.5v-2.5Z" fill="#FFFFFF"/>
</g>
<g fill="#FFF5F9" font-family="Inter, 'Segoe UI', sans-serif" text-anchor="middle">
    <text x="80" y="25" font-size="16" font-weight="600" textLength="96" lengthAdjust="spacingAndGlyphs">EPIC</text>
    <text x="80" y="36" font-size="9" fill="rgba(255,245,249,0.75)" textLength="120" lengthAdjust="spacingAndGlyphs">ELECTRONIC HEALTH RECORDS</text>
</g>
</svg>

